<svg width="204" height="204" viewBox="0 0 204 204" fill="none" xmlns="http://www.w3.org/2000/svg">
<g opacity="0.04" clip-path="url(#clip0)">
<g clip-path="url(#clip1)">
<rect width="204" height="204" rx="102" fill="white"/>
<path d="M103.5 -1.47656C160.659 -1.47656 207 44.8645 207 102.023C207 159.182 160.657 205.523 103.5 205.523C46.3432 205.523 0 159.195 0 102.023C0 44.8521 46.3349 -1.47656 103.5 -1.47656Z" fill="#53AE94"/>
<path d="M116.273 88.2329V72.8363H151.482V49.377H55.6079V72.8363H90.8207V88.2205C62.203 89.535 40.6853 95.2026 40.6853 101.992C40.6853 108.782 62.2133 114.449 90.8207 115.772V165.09H116.282V115.768C144.848 114.449 166.322 108.786 166.322 102.003C166.322 95.2192 144.848 89.5557 116.282 88.2371L116.273 88.2329ZM116.282 111.591V111.578C115.563 111.624 111.873 111.845 103.655 111.845C97.0845 111.845 92.4622 111.659 90.8331 111.574V111.595C65.5501 110.475 46.678 106.072 46.678 100.804C46.678 95.5359 65.5522 91.1392 90.8331 90.0173V107.209C92.4891 107.322 97.2253 107.602 103.762 107.602C111.614 107.602 115.561 107.275 116.286 107.209V90.0173C141.519 91.1413 160.348 95.5483 160.348 100.798C160.348 106.047 141.511 110.456 116.286 111.58" fill="white"/>
</g>
</g>
<defs>
<clipPath id="clip0">
<rect width="204" height="204" fill="white"/>
</clipPath>
<clipPath id="clip1">
<rect width="204" height="204" rx="102" fill="white"/>
</clipPath>
</defs>
</svg>
