<svg width="173" height="161" viewBox="0 0 173 161" fill="none" xmlns="http://www.w3.org/2000/svg">
<g opacity="0.04">
<path d="M154.175 24.7145C151.426 21.5668 148.557 18.5387 145.629 15.65C124.512 -5.20819 95.9635 -22.1418 65.2639 -21.1457C56.1397 -20.8469 46.9357 -18.8547 38.9869 -14.2527C13.985 0.270327 17.9295 32.8824 28.5678 55.2149C40.8596 80.9938 61.8971 102.151 85.9229 117.252C99.0912 125.539 113.415 131.874 128.317 136.297C140.23 139.843 153.458 141.058 164.574 134.464C177.683 126.695 182.843 111.295 183.6 96.7719C184.994 69.8774 171.627 44.6762 154.175 24.7145Z" fill="#FFB657"/>
<path d="M145.227 16.0772L145.649 15.65L164.594 134.464C158.857 137.851 152.581 139.186 146.187 139.186C140.19 139.186 134.094 138.01 128.317 136.297L128.487 135.722C128.487 135.722 128.487 135.722 128.487 135.722C113.635 131.314 99.3615 125 86.2424 116.744L86.2423 116.744C62.3114 101.69 41.3425 80.6124 29.1094 54.9566C23.8209 43.8547 20.2099 30.2215 21.0111 17.5905C21.8109 4.97978 27.0002 -6.59583 39.2878 -13.7336C47.1279 -18.2725 56.2269 -20.249 65.2805 -20.5459C65.2815 -20.546 65.2825 -20.546 65.2835 -20.546L65.3319 -20.5471C66.1905 -20.5666 67.023 -20.5855 67.8736 -20.5855C97.357 -20.5855 124.746 -4.12598 145.227 16.0772ZM65.0123 -29.0171L65.0047 -29.0169L126.265 143.27L126.094 143.845C126.094 143.845 126.094 143.845 126.094 143.845C133.25 145.969 140.022 147.057 146.206 147.057C154.55 147.057 162.089 145.101 168.625 141.236L168.625 141.236C182.373 133.096 190.467 117.4 191.51 97.1813C193.196 64.5547 175.342 36.9117 160.145 19.5382L160.145 19.5379C157.327 16.3206 154.329 13.1223 151.21 10.063C125.65 -15.137 96.0621 -29.057 67.8736 -29.057C66.9301 -29.057 66.0067 -29.0378 65.0721 -29.0183L65.0123 -29.0171Z" fill="#AC562A" stroke="#AC562A" stroke-width="1.2"/>
<path d="M175.992 79.2958C173.595 82.9578 172.407 87.7318 169.071 90.7419C164.566 94.8256 159.601 91.0294 158.048 86.2746C155.729 79.2191 156.534 71.5884 157.991 64.4371C159.429 57.324 161.058 49.9043 164.068 43.2897C164.509 42.3119 165.007 41.2766 164.95 40.2029C164.911 39.1676 164.375 38.2282 163.838 37.3462C161.959 34.2403 159.85 31.2685 157.531 28.4693C156.611 27.3765 155.499 26.2069 154.061 26.1878C151.914 26.1494 150.917 28.4118 150.323 30.1182C147.179 39.3977 143.613 48.0445 137.671 55.9244C135.792 58.4169 132.591 60.9668 129.849 58.2252C128.047 56.4229 127.357 53.4704 126.839 51.0738C125.651 45.4946 125.421 39.6469 125.555 33.9527C125.555 33.6459 125.574 33.3391 125.593 33.0324C125.958 24.3089 127.99 15.3744 132.36 7.76291C133.146 6.38248 132.84 4.63778 131.575 3.67915C128.258 1.20588 124.903 -1.07565 121.491 -3.16546C119.727 -4.2583 117.446 -3.37636 116.814 -1.34407C114.858 4.84868 112.155 10.9839 109.011 16.659C107.152 20.0142 103.414 28.3543 98.6977 28.0475C97.2983 27.9516 96.2056 26.7821 95.6113 25.5167C90.0903 13.553 90.5504 -2.22601 94.4803 -14.5923C94.6145 -14.9949 94.3845 -15.4167 93.9819 -15.5318C75.1952 -20.996 58.8002 -21.9999 43.2002 -14.8C42.7976 -14.5699 39.8302 -13.4028 39.6002 -13.0002C34.9227 -4.00824 34.2669 5.44302 35.4746 15.7579C37.0274 29.217 42.2417 41.4492 48.1077 53.5279C65.1883 88.6904 96.6082 112.714 133.07 125.176C140.067 127.572 147.562 129.125 154.981 128.435C161.882 127.783 167.132 126.363 173.247 123.2C173.669 122.989 175.704 120.574 175.934 120.172C182.433 109.224 184.254 95.3241 181.8 80.4462C181.321 77.5703 180.113 73.0264 175.992 79.2958Z" fill="#FFCD84"/>
<path d="M54.6456 -14.472C47.8523 -8.29626 47.5933 0.130688 51.0398 8.1592C52.4343 11.3666 54.7452 14.2354 57.873 15.7694C59.1081 16.367 60.5425 16.7455 61.8374 16.3073C63.3714 15.7694 64.3675 14.1955 64.8257 12.6018C66.0609 8.39827 64.5269 3.89593 63.7499 -0.247826C63.2917 -2.73806 63.0327 -5.44743 63.7101 -7.91775C64.3675 -10.3283 66.9175 -12.3802 66.9573 -14.8904C66.9773 -16.3646 66.0609 -17.9185 64.5866 -18.2373C61.2398 -18.9744 57.5741 -17.1416 54.6456 -14.472Z" fill="#FFDBAB"/>
</g>
</svg>
