<svg width="179" height="161" viewBox="0 0 179 161" fill="none" xmlns="http://www.w3.org/2000/svg">
<g opacity="0.04">
<path d="M143.936 55.9921C145.231 55.6534 146.545 56.4702 146.864 57.785L148.976 66.5108C149.295 67.8057 148.498 69.1405 147.203 69.4592C145.908 69.7979 144.593 68.9811 144.274 67.6663L142.163 58.9405C141.844 57.6456 142.641 56.3108 143.936 55.9921ZM78.4923 -7.81771C77.7552 -8.97317 78.0938 -10.4673 79.1696 -11.2044L86.6204 -16.1251C87.756 -16.8622 89.2501 -16.5236 89.9872 -15.4279C90.7243 -14.2724 90.3856 -12.7783 89.3099 -12.0411L81.8591 -7.12044C80.7435 -6.36341 79.2493 -6.70208 78.4923 -7.81771Z" fill="white"/>
<path fill-rule="evenodd" clip-rule="evenodd" d="M116.979 22.6864C108.357 20.7439 99.1044 22.3416 91.5215 27.4837C102.937 23.6587 116.065 26.3083 125.15 35.4923C137.939 48.4216 137.939 69.479 125.15 82.4083C123.616 83.9622 121.942 85.3368 120.169 86.5122C124.851 84.8986 129.273 82.2689 132.999 78.5036C142.043 69.3611 144.692 56.1543 140.945 44.6311C130.51 40.516 121.967 32.6462 116.979 22.6864Z" fill="#FFAE54"/>
<path d="M170.79 96.8689L170.789 96.8699C150.057 135.189 102.499 149.186 64.632 128.279C26.7515 107.364 12.7868 59.3124 33.531 20.9712C47.18 -4.25616 72.4556 -18.9594 98.941 -20.0906C102.455 -20.2407 105.179 -18.389 107.071 -15.105C109.009 -11.7417 109.872 -7.12364 109.411 -2.75571C109.232 -1.06387 109.141 0.653021 109.141 2.39024C109.141 10.5437 111.155 18.2267 114.712 24.969C98.2442 18.7507 79.2945 25.5708 70.6423 41.5457C61.1628 59.0479 67.5419 81.1 84.9217 90.7047C102.323 100.321 124.191 93.8117 133.678 76.2955L133.679 76.2929C138.988 66.469 139.313 55.2098 135.502 45.5234C142.125 48.9223 149.634 50.8402 157.591 50.8402C162.051 50.8402 166.375 50.2367 170.484 49.105C172.832 48.4584 175.349 48.7354 177.23 49.6985C179.048 50.6296 180.13 52.0928 180.249 53.9807C181.157 68.4033 178.166 83.2471 170.79 96.8689Z" fill="#FFCD84" stroke="#AC562A" stroke-width="6.12"/>
<mask id="path-4-inside-1" fill="white">
<path d="M112.781 -4.87054C114.131 -13.3324 109.87 -23.2533 101.301 -23.1843C90.6821 -23.0987 80.0726 -20.9242 70.1257 -16.6632C51.3394 -7.75811 62.7148 35.1935 96.1636 26.3083C106.384 24.4954 117.241 27.5634 125.13 35.5122C137.342 47.8638 138.067 67.3914 126.991 80.4203C129.162 80.8188 132.979 79.8981 138.956 76.1528C143.677 73.2044 148.996 76.1329 150.73 81.0935C152.323 85.6292 150.253 89.6014 148.182 93.5767C147.042 95.7648 145.901 97.9539 145.371 100.238C143.837 106.872 145.53 113.745 152.682 115.638C155.81 116.455 159.595 115.08 163.44 112.63C177.763 95.8699 184.292 74.6832 183.036 53.8948C182.655 47.5924 175.55 44.568 169.454 46.2141C165.672 47.2353 161.695 47.7801 157.591 47.7801C132.522 47.7801 112.201 27.4583 112.201 2.39012C112.201 -0.0529976 112.401 -2.48853 112.781 -4.87054Z"/>
</mask>
<path d="M112.781 -4.87054C114.131 -13.3324 109.87 -23.2533 101.301 -23.1843C90.6821 -23.0987 80.0726 -20.9242 70.1257 -16.6632C51.3394 -7.75811 62.7148 35.1935 96.1636 26.3083C106.384 24.4954 117.241 27.5634 125.13 35.5122C137.342 47.8638 138.067 67.3914 126.991 80.4203C129.162 80.8188 132.979 79.8981 138.956 76.1528C143.677 73.2044 148.996 76.1329 150.73 81.0935C152.323 85.6292 150.253 89.6014 148.182 93.5767C147.042 95.7648 145.901 97.9539 145.371 100.238C143.837 106.872 145.53 113.745 152.682 115.638C155.81 116.455 159.595 115.08 163.44 112.63C177.763 95.8699 184.292 74.6832 183.036 53.8948C182.655 47.5924 175.55 44.568 169.454 46.2141C165.672 47.2353 161.695 47.7801 157.591 47.7801C132.522 47.7801 112.201 27.4583 112.201 2.39012C112.201 -0.0529976 112.401 -2.48853 112.781 -4.87054Z" fill="#AC562A"/>
<path d="M70.1257 -16.6632L67.7159 -22.2887L67.6092 -22.243L67.5043 -22.1933L70.1257 -16.6632ZM96.1636 26.3083L95.0947 20.2824L94.8412 20.3273L94.5924 20.3934L96.1636 26.3083ZM125.13 35.5122L129.482 31.2093L129.474 31.2011L125.13 35.5122ZM126.991 80.4203L122.328 76.4563L115.466 84.5278L125.886 86.4398L126.991 80.4203ZM138.956 76.1528L135.714 70.9618L135.706 70.967L138.956 76.1528ZM150.73 81.0935L144.952 83.1121L144.956 83.1218L150.73 81.0935ZM148.182 93.5767L153.609 96.4046L153.609 96.4046L148.182 93.5767ZM145.371 100.238L139.409 98.8541L139.408 98.8596L145.371 100.238ZM152.682 115.638L151.116 121.554L151.126 121.557L151.136 121.559L152.682 115.638ZM163.44 112.63L166.729 117.791L167.499 117.3L168.092 116.606L163.44 112.63ZM183.036 53.8948L176.927 54.2639L183.036 53.8948ZM101.252 -29.3041C89.8311 -29.212 78.4183 -26.8735 67.7159 -22.2887L72.5356 -11.0376C81.7269 -14.975 91.5331 -16.9853 101.35 -17.0645L101.252 -29.3041ZM67.5043 -22.1933C60.6828 -18.9598 56.9134 -12.7327 55.5694 -6.17052C54.2376 0.332281 55.1591 7.53837 57.9454 13.9371C60.747 20.3713 65.5879 26.3341 72.4656 29.9966C79.4347 33.7077 88.0247 34.8025 97.7348 32.2232L94.5924 20.3934C87.5782 22.2566 82.2029 21.3145 78.2187 19.1929C74.1431 17.0226 71.0427 13.3569 69.1676 9.05065C67.2772 4.70905 66.7868 0.0628624 67.5605 -3.71465C68.322 -7.43282 70.1755 -9.91403 72.7471 -11.133L67.5043 -22.1933ZM97.2326 32.3342C105.548 30.8591 114.362 33.3503 120.786 39.8233L129.474 31.2011C120.12 21.7765 107.219 18.1317 95.0947 20.2824L97.2326 32.3342ZM120.778 39.8151C130.778 49.9288 131.33 65.8678 122.328 76.4563L131.653 84.3843C144.805 68.915 143.907 45.7987 129.482 31.2094L120.778 39.8151ZM125.886 86.4398C128.344 86.8907 130.94 86.4821 133.458 85.6544C136.036 84.8067 138.94 83.3853 142.206 81.3387L135.706 70.967C132.995 72.6656 131.002 73.5772 129.635 74.0266C128.207 74.4959 127.809 74.3483 128.095 74.4008L125.886 86.4398ZM142.197 81.3438C142.531 81.1353 142.749 81.101 142.865 81.0949C142.994 81.0881 143.172 81.1094 143.404 81.2164C143.911 81.4497 144.588 82.0692 144.952 83.1121L156.507 79.0748C155.138 75.1572 152.289 71.8321 148.523 70.0981C144.606 68.295 139.908 68.3432 135.714 70.9618L142.197 81.3438ZM144.956 83.1218C145.534 84.7692 145.063 86.3188 142.754 90.7487L153.609 96.4046C155.444 92.884 159.112 86.4892 156.504 79.0652L144.956 83.1218ZM142.754 90.7487C141.69 92.7908 140.147 95.6782 139.409 98.8541L151.332 101.623C151.656 100.23 152.393 98.7388 153.609 96.4046L142.754 90.7487ZM139.408 98.8596C138.449 103.005 138.366 107.733 140.095 112.01C141.929 116.546 145.64 120.105 151.116 121.554L154.248 109.722C152.572 109.278 151.86 108.455 151.443 107.422C150.921 106.131 150.758 104.105 151.333 101.617L139.408 98.8596ZM151.136 121.559C156.901 123.065 162.632 120.402 166.729 117.791L160.151 107.469C156.558 109.759 154.719 109.845 154.228 109.717L151.136 121.559ZM168.092 116.606C183.487 98.5913 190.492 75.8302 189.145 53.5257L176.927 54.2639C178.091 73.5362 172.038 93.1484 158.787 108.654L168.092 116.606ZM167.859 40.3058C164.592 41.1878 161.151 41.6601 157.591 41.6601V53.9001C162.239 53.9001 166.752 53.2829 171.05 52.1225L167.859 40.3058ZM157.591 41.6601C135.902 41.6601 118.321 24.0783 118.321 2.39012H106.081C106.081 30.8383 129.143 53.9001 157.591 53.9001V41.6601ZM118.321 2.39012C118.321 0.279827 118.494 -1.8333 118.825 -3.90642L106.737 -5.83467C106.308 -3.14377 106.081 -0.385822 106.081 2.39012H118.321ZM189.145 53.5257C188.801 47.8434 185.337 43.7787 181.201 41.6384C177.189 39.5623 172.308 39.1041 167.859 40.3058L171.05 52.1225C172.695 51.678 174.416 51.909 175.575 52.5091C176.611 53.0451 176.89 53.6439 176.927 54.2639L189.145 53.5257ZM101.35 -17.0645C102.861 -17.0766 104.248 -16.3405 105.415 -14.2464C106.655 -12.0231 107.216 -8.83568 106.737 -5.83467L118.825 -3.90642C119.696 -9.36723 118.802 -15.3712 116.106 -20.2066C113.338 -25.1712 108.31 -29.3609 101.252 -29.3041L101.35 -17.0645Z" fill="#AC562A" mask="url(#path-4-inside-1)"/>
<circle cx="42.8388" cy="40.6403" r="4.08" fill="#AC562A"/>
<circle cx="102.001" cy="112.04" r="4.08" fill="#AC562A"/>
<circle cx="77.0099" cy="115.61" r="6.63" fill="#AC562A"/>
</g>
</svg>
