<svg width="204" height="204" viewBox="0 0 204 204" fill="none" xmlns="http://www.w3.org/2000/svg">
<g opacity="0.04" clip-path="url(#clip0)">
<g filter="url(#filter0_d)">
<circle cx="102" cy="102" r="102" fill="white"/>
</g>
<path d="M100.167 28.5996L99.1749 31.8524V126.258L100.167 127.215L144 101.311L100.167 28.5996Z" fill="#343434"/>
<path d="M100.167 28.5996L56.3334 101.311L100.167 127.215V81.3929V28.5996Z" fill="#8C8C8C"/>
<path d="M100.167 135.51L99.6212 136.17V169.799L100.167 171.375L144 109.622L100.167 135.51Z" fill="#3C3C3B"/>
<path d="M100.167 171.37V135.51L56.3334 109.622L100.167 171.37Z" fill="#8C8C8C"/>
<path d="M100.167 127.214L144 101.311L100.167 81.3926V127.214Z" fill="#141414"/>
<path d="M56.3334 101.311L100.167 127.214V81.3926L56.3334 101.311Z" fill="#393939"/>
</g>
<defs>
<filter id="filter0_d" x="-23.1818" y="-18.5454" width="250.364" height="250.364" filterUnits="userSpaceOnUse" color-interpolation-filters="sRGB">
<feFlood flood-opacity="0" result="BackgroundImageFix"/>
<feColorMatrix in="SourceAlpha" type="matrix" values="0 0 0 0 0 0 0 0 0 0 0 0 0 0 0 0 0 0 127 0" result="hardAlpha"/>
<feOffset dy="4.63636"/>
<feGaussianBlur stdDeviation="11.5909"/>
<feColorMatrix type="matrix" values="0 0 0 0 0.670833 0 0 0 0 0.523056 0 0 0 0 0.450017 0 0 0 0.16 0"/>
<feBlend mode="normal" in2="BackgroundImageFix" result="effect1_dropShadow"/>
<feBlend mode="normal" in="SourceGraphic" in2="effect1_dropShadow" result="shape"/>
</filter>
<clipPath id="clip0">
<rect width="204" height="204" fill="white"/>
</clipPath>
</defs>
</svg>
