<svg width="68" height="69" viewBox="0 0 68 69" fill="none" xmlns="http://www.w3.org/2000/svg">
<g clip-path="url(#clip0)">
<g clip-path="url(#clip1)">
<rect y="0.492188" width="68" height="68" rx="34" fill="white"/>
<path d="M34.5 0C53.553 0 69 15.447 69 34.5C69 53.553 53.5523 69 34.5 69C15.4477 69 0 53.5571 0 34.5C0 15.4429 15.445 0 34.5 0Z" fill="#53AE94"/>
<path d="M38.7578 29.9032V24.7709H50.494V16.9512H18.536V24.7709H30.2736V29.899C20.7343 30.3372 13.5618 32.2264 13.5618 34.4896C13.5618 36.7528 20.7378 38.642 30.2736 39.0829V55.5222H38.7606V39.0815C48.2826 38.642 55.4406 36.7542 55.4406 34.493C55.4406 32.2319 48.2826 30.3441 38.7606 29.9045L38.7578 29.9032ZM38.7606 37.6891V37.685C38.5211 37.7002 37.2909 37.774 34.5516 37.774C32.3615 37.774 30.8207 37.7119 30.2777 37.6836V37.6905C21.85 37.3172 15.5593 35.8496 15.5593 34.0935C15.5593 32.3375 21.8507 30.8719 30.2777 30.4979V36.2284C30.8297 36.2663 32.4084 36.3595 34.5874 36.3595C37.2046 36.3595 38.5204 36.2505 38.7619 36.2284V30.4979C47.173 30.8726 53.4493 32.3416 53.4493 34.0915C53.4493 35.8413 47.1703 37.311 38.7619 37.6857" fill="white"/>
</g>
</g>
<defs>
<clipPath id="clip0">
<rect width="68" height="68" fill="white" transform="translate(0 0.492188)"/>
</clipPath>
<clipPath id="clip1">
<rect y="0.492188" width="68" height="68" rx="34" fill="white"/>
</clipPath>
</defs>
</svg>
